<svg fill="#6e7e95" width="30" viewBox="0 0 512 512" xmlns="http://www.w3.org/2000/svg"><g id="SVGRepo_bgCarrier" stroke-width="0"></g><g id="SVGRepo_tracerCarrier" stroke-linecap="round" stroke-linejoin="round"></g><g id="SVGRepo_iconCarrier"><title>ionicons-v5-d</title><path d="M32,376a56,56,0,0,0,56,56H424a56,56,0,0,0,56-56V222H32Zm66-76a30,30,0,0,1,30-30h48a30,30,0,0,1,30,30v20a30,30,0,0,1-30,30H128a30,30,0,0,1-30-30Z"></path><path d="M424,80H88a56,56,0,0,0-56,56v26H480V136A56,56,0,0,0,424,80Z"></path></g></svg>