<svg fill="#ffc814" width="22" viewBox="0 0 24 24" xmlns="http://www.w3.org/2000/svg" stroke="#000000" stroke-width="1.32" transform="matrix(1, 0, 0, 1, 0, 0)"><g id="SVGRepo_bgCarrier" stroke-width="0"></g><g id="SVGRepo_tracerCarrier" stroke-linecap="round" stroke-linejoin="round"></g><g id="SVGRepo_iconCarrier"><path d="M14 8H4c-1.103 0-2 .897-2 2v10c0 1.103.897 2 2 2h10c1.103 0 2-.897 2-2V10c0-1.103-.897-2-2-2z"></path><path d="M20 2H10a2 2 0 0 0-2 2v2h8a2 2 0 0 1 2 2v8h2a2 2 0 0 0 2-2V4a2 2 0 0 0-2-2z"></path></g></svg>